<svg width="118" height="54" viewBox="0 0 118 54" fill="none" xmlns="http://www.w3.org/2000/svg">
<g clip-path="url(#clip0)">
<path d="M5.13158 26.6059C4.96548 26.7099 4.80812 26.8311 4.65076 26.9524C4.80812 26.8311 4.96548 26.7099 5.13158 26.6059Z" fill="white"/>
<path d="M12.0902 29.4467L12.5885 29.3514L12.0902 29.4467Z" fill="white"/>
<path d="M10.7265 29.8018L11.3559 29.6026L10.7265 29.8018Z" fill="white"/>
<path d="M9.92221 30.1482L10.2544 29.9923L9.92221 30.1482Z" fill="white"/>
<path d="M26.8818 41.4246L21.1382 42.3339C20.9809 45.5904 19.2325 47.9548 15.4996 48.5004C10.097 49.3665 7.12476 45.7636 6.22433 40.1601C5.76041 37.9352 5.92991 35.6263 6.71388 33.4913C4.71887 32.9735 2.97636 31.7663 1.80086 30.0876C0.0961616 32.9889 -0.393392 36.7217 0.314713 41.1214C1.74841 50.0594 7.10727 55.1779 15.9979 53.7748C23.315 52.6143 27.3626 48.128 26.8818 41.4246Z" fill="white"/>
<path d="M23.4024 27.9137C23.5915 27.1995 23.7086 26.4684 23.7521 25.7312C23.9153 22.059 22.3621 19.6687 19.0926 18.5601C16.7993 17.7695 14.4647 17.1017 12.099 16.5594C8.26997 15.6934 6.41666 14.3856 6.41666 12.5495C6.54779 10.3237 8.09513 9.17178 11.1986 9.13714C13.7425 9.13714 15.4996 9.94259 16.4962 11.6055C16.7097 12.1288 17.0794 12.5752 17.5559 12.8847C18.0324 13.1943 18.5929 13.3523 19.1625 13.3376H22.5282C22.196 7.30105 18.6205 4.3304 11.7318 4.3304C4.49341 4.26978 0.874206 7.25775 0.708107 13.3549C0.708107 17.2003 3.54927 19.8419 9.2753 21.2969C11.3909 21.8512 13.3666 22.3622 15.0888 22.8731C15.928 23.0511 16.686 23.495 17.248 24.1376H17.3092H17.4141H17.4753H17.5715L17.7813 24.1896H17.8687H17.9474H17.9999L18.1834 24.2415H18.3058H18.4282H18.5419L18.7342 24.3108L18.9353 24.3801H19.0139H19.0664L19.25 24.4494L19.7133 24.6486L20.1679 24.8738L20.2728 24.9258L20.4913 25.0557L20.5875 25.1163L20.7711 25.2375C21.4192 25.6938 22.0066 26.2292 22.5195 26.8311C22.6747 27.0023 22.8206 27.1816 22.9566 27.3681L23.0265 27.4547L23.4024 27.9137Z" fill="#E83B39"/>
<path d="M11.6094 29.3081H11.2947L10.6565 29.2388C10.0863 29.1705 9.52595 29.0368 8.98681 28.8404C8.71344 28.7408 8.45004 28.6161 8.20003 28.468L8.10387 28.416C7.9764 28.3336 7.85382 28.2439 7.7367 28.1476L7.58809 28.0176L7.22966 27.7145C7.22966 27.6626 7.1335 27.6106 7.08979 27.55L6.99363 27.446V27.4027V27.3594L6.94118 27.2815C6.87998 27.1862 6.82753 27.0909 6.77508 26.9957V26.9264V26.8744V26.8225V26.7272V26.6492V26.58V26.502V26.4414V26.3808V26.3375V26.2595V26.2075V26.1383C6.46911 26.3028 6.18062 26.4674 5.90087 26.6492C6.18062 26.4674 6.46911 26.3028 6.77508 26.1383C6.49153 25.6939 6.27092 25.2131 6.11943 24.7092H0.271004C0.445844 31.0229 4.37102 34.2361 12.1165 34.2361C15.4035 34.2361 17.9911 33.6905 19.8881 32.5819C19.6422 32.4386 19.4208 32.2573 19.2325 32.0449C19.1697 31.9856 19.1113 31.9219 19.0576 31.8544L19.0052 31.7938L18.944 31.7071L18.8303 31.5513L18.7342 31.43L18.6468 31.3174L18.3583 31.0056L18.2534 30.893H18.2097L18.1572 30.8411L18.096 30.7804L17.9212 30.6332L17.7376 30.4946L17.4841 30.2002L17.3529 30.1136L17.2655 30.0703C17.2015 30.0276 17.1343 29.99 17.0645 29.9577H17.012H16.9508H16.8984C16.7907 29.9069 16.6797 29.8635 16.5662 29.8278L16.3389 29.7411H16.2777H16.2077L15.7881 29.4467H15.6045H15.5259H15.3598H15.2374H14.9401H14.6866H14.5293H13.8824C13.5502 29.49 13.2005 29.516 12.8246 29.5333" fill="#E83B39"/>
<path d="M83.9235 9.60481C86.1178 9.60481 87.4204 10.9819 87.7001 13.6494H80.0683C80.453 10.9819 81.7643 9.60481 83.9498 9.60481H83.9235ZM92.8404 19.7466H89.0726C88.7459 19.7332 88.4202 19.7905 88.1183 19.9147C87.8163 20.0388 87.5453 20.2268 87.3242 20.4654C86.4575 21.3655 85.2662 21.8886 84.011 21.9205C81.5107 21.9205 80.1645 20.3528 79.9722 17.2696H93.0852C93.4699 9.37674 90.4305 5.43609 83.9673 5.44763C77.7779 5.44763 74.657 8.91195 74.657 15.78C74.657 22.648 77.8041 26.1902 83.9235 26.3808C88.959 26.3808 91.7302 24.0164 92.8404 19.7466ZM69.7527 5.75942C69.1914 5.72134 68.6342 5.87881 68.1777 6.2046C67.7211 6.53039 67.3939 7.00401 67.2525 7.54354L63.7207 19.9198L59.6032 5.75942H53.9471L61.0981 25.9217H66.5269L73.7216 5.75942H69.7527ZM48.9554 0H46.3328V25.9217H51.4556V2.47698C51.451 1.82145 51.1862 1.19405 50.7183 0.730506C50.2504 0.266961 49.6171 0.00453674 48.9554 0V0ZM34.7496 9.60481C36.8652 9.60481 37.9404 10.1764 38.0541 11.337C38.1677 12.4975 36.9351 13.0691 34.7496 13.3549C29.5918 13.8573 26.0513 15.1477 25.9376 19.9891C25.9376 24.4494 29.3208 26.7012 34.2076 26.3201C39.7063 25.9391 43.0982 23.4621 43.0982 17.8932V11.0165C42.9758 7.28372 40.1347 5.44763 34.5136 5.44763C29.8191 5.44763 27.1615 7.28372 26.5496 11.0165H31.6637C31.9347 10.0638 32.94 9.60481 34.7496 9.60481ZM33.5519 22.1803C33.2165 22.2326 32.8735 22.2098 32.5481 22.1136C32.2227 22.0173 31.9233 21.8501 31.6717 21.6241C31.4201 21.3981 31.2229 21.1192 31.0944 20.8078C30.9659 20.4964 30.9095 20.1604 30.9293 19.8245C30.9293 18.3349 31.9696 17.3822 34.0065 17.0011C35.4037 16.7245 36.7708 16.3155 38.0891 15.78V17.6507C38.1328 20.5087 36.4018 22.1803 33.5519 22.1803Z" fill="#E83B39"/>
<path d="M106.417 37.1028C109.039 37.1028 110.351 39.0515 110.351 42.9748C110.351 46.8981 109.004 49.0374 106.382 49.0374C103.759 49.0374 102.413 47.054 102.378 43.1307C102.343 39.2074 103.724 37.0681 106.417 37.0681V37.1028ZM106.417 32.6078C100.297 32.6078 97.1765 36.0722 97.1765 43.0961C97.1765 50.12 100.254 53.5323 106.417 53.5323C112.58 53.5323 115.71 50.068 115.71 43.0961C115.71 36.1241 112.589 32.6425 106.417 32.6425V32.6078ZM91.975 27.1949H89.3524V53.1166H94.414V29.6718C94.4098 29.0266 94.1534 28.4081 93.6986 27.9462C93.2438 27.4843 92.626 27.215 91.975 27.1949ZM77.7167 36.7997C79.911 36.7997 81.2135 38.1681 81.4933 40.8356H73.8265C74.2112 38.1681 75.5225 36.7997 77.7167 36.7997ZM86.6161 46.9414H82.8395C82.5128 46.9274 82.1869 46.9845 81.8848 47.1087C81.5828 47.2329 81.3119 47.4212 81.0911 47.6603C80.2294 48.5509 79.0489 49.0703 77.8041 49.1066C75.2952 49.1066 73.9489 47.5477 73.7566 44.4645H86.9221C87.3067 36.5716 84.2674 32.6309 77.8041 32.6425C71.5973 32.6858 68.4764 36.1068 68.4764 42.9748C68.4764 49.8428 71.5623 53.3677 77.7255 53.5669C82.7259 53.5669 85.4971 51.2112 86.6161 46.9414ZM56.7533 37.1807C59.5245 37.1807 60.9495 39.0861 61.0719 42.9748C61.0719 47.054 59.6032 49.1066 56.7009 49.1066C53.7985 49.1066 52.391 47.054 52.426 42.9748C52.5571 39.0861 53.9821 37.1807 56.7533 37.1807ZM52.3823 29.7498C52.3823 28.0696 51.5081 27.1516 49.8384 27.1516H47.2157V44.3865C47.2157 50.4491 50.4153 53.4544 56.7708 53.4197C63.1263 53.3851 66.2472 49.9554 66.2472 43.2C66.2472 36.3406 63.5546 32.807 58.1171 32.6425C56.9577 32.5922 55.8065 32.8568 54.788 33.4079C53.7695 33.959 52.9225 34.7755 52.3386 35.769L52.3823 29.7498ZM36.4456 36.7997C38.5699 36.7997 39.6451 37.3713 39.7588 38.5318C39.8724 39.6924 38.6485 40.264 36.4456 40.5498C31.2878 41.0435 27.7035 42.3426 27.6248 47.1839C27.6248 51.6443 31.0168 53.8961 35.9123 53.515C41.4198 53.1339 44.8117 50.6569 44.8117 45.088V38.2114C44.698 34.4699 41.8394 32.6425 36.2183 32.6425C31.515 32.6425 28.8575 34.4699 28.2455 38.2114H33.3684C33.6394 37.2414 34.636 36.7997 36.4456 36.7997ZM35.2566 49.3665C34.921 49.4157 34.5785 49.3904 34.2539 49.2925C33.9293 49.1945 33.6307 49.0263 33.3797 48.8001C33.1287 48.5738 32.9317 48.2951 32.8027 47.9842C32.6737 47.6732 32.6161 47.3378 32.634 47.0021C32.634 45.5211 33.6743 44.5684 35.72 44.1873C37.1174 43.9119 38.4847 43.5029 39.8025 42.9661V44.8369C39.8375 47.7036 38.1065 49.3665 35.2566 49.3665Z" fill="white"/>
<path fill-rule="evenodd" clip-rule="evenodd" d="M12.1165 29.3168C8.82072 29.3168 6.87125 28.1822 6.28553 25.9044C4.42151 26.8737 2.86588 28.3369 1.79212 30.1309C2.96763 31.8096 4.71013 33.0168 6.70515 33.5346C7.64929 31.3174 9.56379 29.8104 12.5885 29.3341H12.8246L12.1165 29.3168Z" fill="white"/>
<path d="M6.70515 33.5346C7.64929 31.3174 9.56379 29.8104 12.5885 29.3341H12.8246H12.1165C8.82072 29.3341 6.87125 28.1995 6.28553 25.9217C4.42151 26.891 2.86588 28.3542 1.79212 30.1482C2.96763 31.827 4.71013 33.0341 6.70515 33.5519" fill="#E83B39"/>
<path fill-rule="evenodd" clip-rule="evenodd" d="M106.6 14.6021C107.562 14.6021 108.121 15.2084 108.261 16.3862H104.904C105.079 15.2084 105.656 14.6021 106.653 14.6021H106.6ZM110.526 19.0537H108.856C108.714 19.0479 108.572 19.0728 108.441 19.1266C108.31 19.1805 108.192 19.262 108.095 19.3655C107.905 19.563 107.678 19.7213 107.426 19.8312C107.173 19.9412 106.902 20.0008 106.627 20.0064C105.525 20.0064 104.942 19.3222 104.878 17.9538H110.692C110.867 14.4895 109.52 12.7573 106.662 12.7573C103.803 12.7573 102.553 14.2903 102.553 17.3129C102.553 20.3355 103.917 21.9118 106.635 21.9984C107.537 22.0754 108.436 21.8163 109.156 21.2717C109.875 20.7271 110.363 19.9363 110.526 19.0537ZM94.344 18.8459C94.2839 18.3516 94.2547 17.8541 94.2566 17.3562C94.2566 17.183 94.2566 17.0098 94.2566 16.8366C94.5778 17.2298 94.9754 17.5551 95.426 17.7931C95.8765 18.0312 96.3707 18.1771 96.8792 18.2223C98.4266 18.4908 99.2046 18.8632 99.2046 19.3222C99.2046 19.7812 98.7238 20.1883 97.7797 20.1883C96.6694 20.1883 95.9613 19.8505 95.9089 18.8719L94.344 18.8459ZM106.461 5.29175C108.908 5.29218 111.299 6.01941 113.324 7.37953C115.35 8.73965 116.918 10.6702 117.825 12.9219C117.292 13.0172 117.03 13.3809 117.047 14.0132V18.7073C117.047 19.1093 116.886 19.4948 116.599 19.779C116.312 20.0633 115.923 20.2229 115.517 20.2229C115.112 20.2229 114.722 20.0633 114.435 19.779C114.149 19.4948 113.987 19.1093 113.987 18.7073V12.8959H111.732V18.2483C111.732 19.7466 112.117 20.7253 112.903 21.2103C113.654 21.7141 114.541 21.98 115.447 21.9724C116.346 21.9776 117.231 21.754 118.017 21.3229C117.176 23.6832 115.618 25.7277 113.556 27.1756C111.495 28.6235 109.032 29.4038 106.505 29.4095C103.978 29.4152 101.512 28.646 99.444 27.2074C97.3761 25.7688 95.8084 23.7314 94.956 21.3748C95.7301 21.8158 96.6172 22.0235 97.5087 21.9724C99.8865 21.9724 101.617 21.167 101.617 18.9758C101.624 18.6835 101.571 18.3929 101.463 18.1208C101.355 17.8487 101.194 17.6006 100.988 17.3909C100.075 16.7608 99.0169 16.3678 97.9108 16.2476C96.7394 16.0311 96.1624 15.676 96.1624 15.217C96.1624 14.758 96.6082 14.5328 97.4912 14.5328C98.2342 14.5328 98.6976 14.7493 98.8462 15.1391C98.9343 15.3239 99.0787 15.4768 99.259 15.5762C99.4393 15.6756 99.6465 15.7166 99.8515 15.6934H101.276C101.27 15.2757 101.172 14.8645 100.987 14.4888C100.803 14.1132 100.538 13.7823 100.21 13.5195C99.3987 12.9794 98.4323 12.715 97.4562 12.766C96.5242 12.7307 95.6052 12.9917 94.8336 13.5108C95.6591 11.1074 97.2253 9.02129 99.3113 7.54668C101.397 6.07207 103.898 5.28336 106.461 5.29175Z" fill="#E83B39"/>
<path d="M12.8158 29.2994C13.183 29.2994 13.5414 29.2215 13.8824 29.2128H14.5293H14.6866H14.9401H15.2374H15.3598H15.5259H15.6045H15.7881L15.9455 29.2561H16.0154H16.0766L16.3039 29.3427C16.4175 29.3785 16.5285 29.4219 16.6361 29.4726H16.6886H16.7497H16.8022C16.872 29.505 16.9393 29.5426 17.0033 29.5852L17.0907 29.6285L17.2218 29.7151L17.283 29.7585L17.4666 29.897L17.6414 30.0443L17.7026 30.1049L17.7551 30.1568H17.7988L17.9037 30.2694L17.9824 30.3647L18.0698 30.4773L18.166 30.5985L18.2796 30.7544L18.3408 30.841L18.3932 30.9017C18.4486 31.1383 18.5514 31.3614 18.6956 31.5578C18.8397 31.7542 19.0223 31.9199 19.2325 32.0449C19.4221 32.2381 19.6402 32.4016 19.8794 32.5299C20.4783 32.8398 21.1662 32.9375 21.8289 32.807L25.3956 32.2441C25.0116 30.6879 24.3322 29.2183 23.3937 27.9137L23.3238 27.8271C23.1877 27.6406 23.0418 27.4613 22.8867 27.2901C22.3738 26.6882 21.7863 26.1528 21.1382 25.6965L20.9547 25.5753L20.8585 25.5147L20.64 25.3848L20.535 25.3328L20.0805 25.1076L19.6171 24.9084L19.2325 24.6919H19.18H19.1014L18.9003 24.6226L18.708 24.5533H18.5943H18.4719H18.3495L18.166 24.5014H18.1135H18.0348H17.9474L17.5977 24.2502H17.5016H17.4404H17.3355H17.2743C15.4582 23.934 13.6004 23.934 11.7843 24.2502C9.53044 24.5222 7.35932 25.2598 5.41132 26.4154C5.69107 26.2335 5.97956 26.069 6.28553 25.9044C6.89747 28.1822 8.82072 29.3167 12.1165 29.3167H12.8246L12.8158 29.2994Z" fill="white"/>
</g>
<defs>
<clipPath id="clip0">
<rect width="118" height="54" fill="white"/>
</clipPath>
</defs>
</svg>
