<svg width="124" height="124" viewBox="0 0 62 62" fill="none" xmlns="http://www.w3.org/2000/svg">
<path fill-rule="evenodd" clip-rule="evenodd" d="M29.876 2.43577C33.8238 4.0075 35.4014 9.12595 39.2099 11.0244C42.9961 12.9117 48.8269 9.88148 51.4991 13.2144C54.1546 16.5264 49.656 21.8979 51.1404 25.9047C52.9687 30.8394 59.7295 32.9034 60.7131 38.0844C61.657 43.0556 60.3053 49.5829 56.1601 52.3438C51.5327 55.426 45.0926 50.3616 39.8115 52.0063C35.6258 53.3098 34.0724 59.2625 29.876 60.5293C25.5673 61.8299 21.0039 60.143 16.6535 58.9969C11.6586 57.681 5.29859 57.6835 2.4244 53.2974C-0.515429 48.8112 1.92557 42.6699 2.43005 37.2916C2.82437 33.0879 4.75694 29.288 5.0715 25.0772C5.44799 20.0373 2.27698 14.6497 4.4601 10.1166C6.59024 5.69345 11.6242 3.2764 16.2427 1.88065C20.6602 0.54567 25.5831 0.726702 29.876 2.43577Z" fill="#E83B39" stroke="#111" stroke-width="2"/>
<path d="M28.9907 30.73C31.3539 30.2733 33.6921 29.6959 35.9961 29V22C35.9961 22 29.4911 20 26.4888 20C25.1522 20.0038 23.8627 20.4933 22.8609 21.3773C21.8591 22.2613 21.2133 23.4794 21.0442 24.8041C20.8751 26.1289 21.1942 27.4699 21.9419 28.5769C22.6896 29.6838 23.8149 30.4811 25.1077 30.82L25.9884 37H26.9892C27.0292 37.4766 27.1827 37.9368 27.4369 38.3421C27.691 38.7474 28.0385 39.0861 28.4503 39.33C28.9146 39.6058 29.3002 39.9962 29.57 40.4638C29.8399 40.9313 29.985 41.4603 29.9915 42H30.9923C30.9877 41.3111 30.8104 40.6344 30.4764 40.0316C30.1425 39.4289 29.6627 38.9195 29.0808 38.55C28.3802 38 27.9899 37.63 27.9899 37H28.9907V30.73ZM22.9861 25.5C22.9861 24.5717 23.3551 23.6815 24.012 23.0251C24.6689 22.3687 25.5598 22 26.4888 22C29.0358 22.2401 31.5511 22.7428 33.9946 23.5V27.5C31.5511 28.2572 29.0358 28.7599 26.4888 29C25.5598 29 24.6689 28.6313 24.012 27.9749C23.3551 27.3185 22.9861 26.4283 22.9861 25.5V25.5ZM41 27C40.2234 27.0194 39.456 26.8294 38.7783 26.45C38.237 26.1396 37.6208 25.9839 36.9969 26V25C37.7735 24.9806 38.5409 25.1706 39.2186 25.55C39.7599 25.8604 40.3761 26.0161 41 26V27ZM41 24C40.3761 24.0161 39.7599 23.8604 39.2186 23.55C38.5409 23.1706 37.7735 22.9806 36.9969 23V24C37.6208 23.9839 38.237 24.1396 38.7783 24.45C39.456 24.8294 40.2234 25.0194 41 25V24ZM41 28C40.3761 28.0161 39.7599 27.8604 39.2186 27.55C38.5409 27.1706 37.7735 26.9806 36.9969 27V28C37.6208 27.9839 38.237 28.1396 38.7783 28.45C39.456 28.8294 40.2234 29.0194 41 29V28ZM27.9899 25.5C27.9899 25.7967 27.9019 26.0867 27.7369 26.3334C27.572 26.58 27.3375 26.7723 27.0632 26.8858C26.7889 26.9994 26.4871 27.0291 26.1959 26.9712C25.9047 26.9133 25.6372 26.7704 25.4273 26.5607C25.2174 26.3509 25.0744 26.0836 25.0165 25.7926C24.9585 25.5017 24.9883 25.2001 25.1019 24.926C25.2155 24.6519 25.4079 24.4176 25.6548 24.2528C25.9016 24.088 26.1919 24 26.4888 24C26.8869 24 27.2687 24.158 27.5503 24.4393C27.8318 24.7206 27.9899 25.1022 27.9899 25.5Z" fill="#111"/>
</svg>
