<svg width="104" height="104" viewBox="0 0 62 62" fill="none" xmlns="http://www.w3.org/2000/svg">
<path fill-rule="evenodd" clip-rule="evenodd" d="M31.8056 4.79615C35.3408 3.56146 38.709 0.240518 42.3007 1.1582C45.8294 2.05981 47.9004 6.78766 50.7539 9.63749C54.1239 13.0032 59.5607 14.2982 60.7672 19.601C61.9852 24.9548 58.1014 30.0259 56.5804 35.2466C55.3593 39.438 54.1025 43.461 52.6344 47.516C51.0648 51.8517 50.839 57.905 47.5751 60.121C44.1552 62.4428 39.9869 59.5255 36.1846 58.6844C33.334 58.0539 30.7306 56.5519 27.9023 55.7694C25.0738 54.9868 21.9949 55.7725 19.4246 54.0473C16.7683 52.2642 15.5521 48.2075 13.1604 45.8741C9.30299 42.1108 0.979187 42.3486 1.00004 36.072C1.02242 29.3352 9.97807 29.2331 13.233 23.997C15.1281 20.9484 13.5872 15.7665 15.5036 12.7405C17.4176 9.71823 20.732 9.0801 23.5495 7.70709C26.2492 6.39143 29.0213 5.76854 31.8056 4.79615Z" fill="white" stroke="#4E127D" stroke-width="2"/>
<path d="M34.7999 31.0282L40.7907 24.0476C40.8592 23.9677 40.9129 23.8694 40.9478 23.7597C40.9828 23.6501 40.9981 23.5318 40.9927 23.4136C40.9873 23.2955 40.9614 23.1803 40.9167 23.0765C40.8721 22.9728 40.8099 22.883 40.7346 22.8138L39.3382 21.5403C38.9452 21.1858 38.4727 21.0034 37.9917 21.0206C37.5107 21.0379 37.047 21.2537 36.6701 21.6358L29.7006 28.7358L27.6683 26.73C27.9398 25.7069 27.9026 24.5914 27.5639 23.6015C27.2253 22.6117 26.6096 21.8187 25.8373 21.3778C25.065 20.9369 24.1917 20.8798 23.3881 21.2175C22.5846 21.5553 21.9086 22.2637 21.4925 23.2042C21.0763 24.1446 20.95 25.2495 21.1381 26.3026C21.3262 27.3557 21.8152 28.2813 22.5096 28.8984C23.2039 29.5155 24.0536 29.7796 24.8924 29.6392C25.7312 29.4987 26.4987 28.9637 27.0449 28.1388L28.6782 29.7308L26.035 32.4768C25.2861 31.9622 24.4137 31.8228 23.5885 32.086C22.7633 32.3491 22.0446 32.9958 21.5731 33.8996C21.1015 34.8034 20.911 35.8993 21.0388 36.973C21.1665 38.0467 21.6034 39.0209 22.2639 39.7051C22.9244 40.3894 23.761 40.7344 24.6102 40.6727C25.4593 40.611 26.26 40.1471 26.8554 39.3717C27.4509 38.5963 27.7984 37.5651 27.83 36.4799C27.8616 35.3946 27.575 34.3333 27.0262 33.5036L37.4431 22.8775C37.6089 22.7102 37.8127 22.6159 38.0239 22.6088C38.2352 22.6016 38.4426 22.6819 38.6151 22.8377L39.3819 23.5382L32.9547 31.0361L39.3819 38.5182L38.6151 39.2186C38.4426 39.3744 38.2352 39.4548 38.0239 39.4476C37.8127 39.4404 37.6089 39.3461 37.4431 39.1788L31.3276 32.9305L30.3988 34.013L36.6701 40.3807C37.0475 40.7647 37.5124 40.9817 37.9948 40.9989C38.4772 41.0161 38.9508 40.8327 39.3445 40.4763L40.7409 39.2027C40.8161 39.1335 40.8783 39.0438 40.923 38.94C40.9676 38.8363 40.9936 38.7211 40.999 38.6029C41.0043 38.4847 40.989 38.3665 40.954 38.2568C40.9191 38.1471 40.8654 38.0488 40.797 37.969L34.7999 31.0282ZM24.4454 28.1309C24.0185 28.1324 23.6009 27.9723 23.2454 27.6706C22.8898 27.3689 22.6124 26.9394 22.4482 26.4363C22.284 25.9332 22.2404 25.3792 22.3229 24.8444C22.4054 24.3097 22.6104 23.8182 22.9118 23.4323C23.2132 23.0463 23.5975 22.7832 24.0161 22.6763C24.4346 22.5694 24.8686 22.6235 25.2631 22.8317C25.6576 23.0399 25.9949 23.3929 26.2322 23.846C26.4694 24.299 26.5961 24.8318 26.5961 25.3768C26.5961 26.1059 26.3697 26.8052 25.9666 27.3214C25.5634 27.8377 25.0164 28.1288 24.4454 28.1309V28.1309ZM24.4454 39.0515C24.0185 39.0531 23.6009 38.8929 23.2454 38.5912C22.8898 38.2896 22.6124 37.86 22.4482 37.3569C22.284 36.8538 22.2404 36.2998 22.3229 35.7651C22.4054 35.2303 22.6104 34.7388 22.9118 34.3529C23.2132 33.9669 23.5975 33.7038 24.0161 33.5969C24.4346 33.49 24.8686 33.5441 25.2631 33.7523C25.6576 33.9605 25.9949 34.3135 26.2322 34.7666C26.4694 35.2196 26.5961 35.7524 26.5961 36.2975C26.5961 37.0265 26.3697 37.7258 25.9666 38.242C25.5634 38.7583 25.0164 39.0494 24.4454 39.0515V39.0515Z" fill="#4E127D"/>
</svg>
