<svg width="124" height="124" viewBox="0 0 64 64" fill="none" xmlns="http://www.w3.org/2000/svg">
<path d="M40.6394 11.6211C39.2947 10.892 38.2617 9.6391 37.0712 8.18936L37.0561 8.171C35.9243 6.79264 34.6365 5.22439 32.8583 4.32043C32.6835 4.23157 32.506 4.14089 32.3261 4.04898C30.636 3.18538 28.733 2.21301 26.8092 1.60929C24.6688 0.937582 22.3575 0.6725 20.1433 1.59598C17.8499 2.55247 16.7209 4.8156 15.8399 6.8491C15.6914 7.19207 15.5502 7.52851 15.4114 7.85939C15.114 8.5681 14.8274 9.25134 14.5013 9.91886C14.0309 10.8818 13.5242 11.7095 12.9008 12.35C11.7075 13.5761 10.092 14.3105 8.29774 15.1261C7.92858 15.2939 7.55186 15.4652 7.1697 15.6449C5.04182 16.6453 2.76727 17.9167 1.73693 20.5024C0.788308 22.8832 0.843868 25.5066 1.40507 27.987C1.96723 30.4716 3.05168 32.8831 4.25329 34.9027C5.52042 37.0325 7.73002 38.0884 9.61374 38.9886C9.66938 39.0152 9.72474 39.0416 9.77978 39.068C11.8157 40.0424 13.4681 40.8813 14.3584 42.4796C15.2234 44.0327 15.0806 45.9853 14.8716 48.3544C14.8677 48.3982 14.8638 48.4421 14.8599 48.4862C14.667 50.6661 14.4401 53.2306 15.6535 55.3715C17.895 59.3263 22.1292 61.7551 26.1863 62.6919C30.3942 63.6635 34.6759 62.1384 38.374 60.7831C41.9406 59.476 45.6982 57.7411 48.409 54.5851C51.0058 51.5619 52.2978 47.5539 53.0265 43.7153C53.3527 41.9972 52.9526 40.2158 52.6112 38.6952C52.5724 38.5224 52.5343 38.3529 52.4982 38.1873C52.1179 36.4446 51.9241 35.0685 52.4515 33.8683C52.9294 32.7809 53.7735 31.8246 54.8514 30.8938C55.6371 30.2152 56.489 29.5963 57.3693 28.9568C57.7127 28.7073 58.0604 28.4546 58.4102 28.1941C60.7595 26.4443 63.3145 24.2782 62.9687 20.8326C62.6545 17.701 60.0718 16.346 57.5426 15.5645C56.4081 15.2139 55.1793 14.9462 54.0158 14.6927C53.8563 14.6579 53.698 14.6234 53.5413 14.589C52.2134 14.2974 51.0027 14.0123 49.9992 13.6244C48.4783 13.0364 46.8657 12.8746 45.4151 12.729C45.2566 12.7131 45.0999 12.6974 44.9456 12.6813C43.321 12.5123 41.9013 12.3055 40.6394 11.6211Z" fill="#E83B39" stroke="#111" stroke-width="2"/>
<path d="M28.6812 35.8184C30.4174 37.425 34.6401 36.1223 38.1125 32.9092C41.5849 29.6955 42.9926 25.7881 41.2564 24.182" stroke="#111" stroke-width="2" stroke-linecap="round" stroke-linejoin="round"/>
<path d="M33.7905 23.0908L34.5758 23.8179" stroke="#111" stroke-width="2" stroke-linecap="round" stroke-linejoin="round"/>
<path d="M31.0396 25.6364L31.8248 26.3636" stroke="#111" stroke-width="2" stroke-linecap="round" stroke-linejoin="round"/>
<path d="M28.6812 28.5451L29.467 29.2728" stroke="#111" stroke-width="2" stroke-linecap="round" stroke-linejoin="round"/>
<path d="M27.8945 32.182L28.6809 32.9092" stroke="#111" stroke-width="2" stroke-linecap="round" stroke-linejoin="round"/>
<path d="M38.1123 22L38.8982 22.7272" stroke="#111" stroke-width="2" stroke-linecap="round" stroke-linejoin="round"/>
<path d="M37.3262 26.3636L38.8979 27.8179" stroke="#111" stroke-width="2" stroke-linecap="round" stroke-linejoin="round"/>
<path d="M34.5757 28.9092L36.1479 30.3636" stroke="#111" stroke-width="2" stroke-linecap="round" stroke-linejoin="round"/>
<path d="M31.4316 31.0907L33.0039 32.5456" stroke="#111" stroke-width="2" stroke-linecap="round" stroke-linejoin="round"/>
<path d="M28.6809 37.9999C29.332 37.3974 29.332 36.4205 28.6809 35.818C28.0298 35.2155 26.9741 35.2155 26.323 35.818L23.1791 38.7272C22.528 39.3297 22.528 40.3065 23.1791 40.909C23.8302 41.5116 24.8859 41.5116 25.537 40.909L28.6809 37.9999Z" stroke="#111" stroke-width="2" stroke-linecap="round" stroke-linejoin="round"/>
</svg>
